<svg xmlns="http://www.w3.org/2000/svg" width="400" height="202.815" viewBox="0 0 300 152.111"><path d="M0 152.111h300V0H0Zm0 0" style="clip-rule:nonzero;fill:#5eabd7;fill-opacity:1;fill-rule:nonzero;stroke:none;stroke-width:.856527"/><path d="M0 152.078h299.99V0H0Zm0 0" style="clip-rule:nonzero;fill:#ca171c;fill-opacity:1;fill-rule:nonzero;stroke:none;stroke-width:.856527"/><path d="M18.804 20.535H32.33v19.782l16.786-19.782h16.039L46.682 41.5l19.095 27.807H49.535L37.283 51.184l-4.952 5.513v12.609H18.804Zm52.97 0h13.521v36.92h23.63v11.85H71.774Zm44.676 0h39.245v11.482h-25.867v7.388h23.432v10.663h-23.432v7.74h26.219v11.498H116.45zm47.473 0h13.593v48.77h-13.593zm23.207 0h12.609l20.079 25.779V20.535h13.378v48.77h-11.845l-20.843-26.762v26.763H187.13zm55.405 0h39.245v11.482h-25.861v7.388h23.415v10.663H255.92v7.74h26.196v11.498h-39.58zM17.886 128.102l26.482-40.465H18.853v-4.744h32.281v3.546L24.635 126.92h26.5v4.743h-33.25Zm42.79-45.209H90.44v4.81H65.898v16.984h22.036v4.744H65.898v17.418h24.894v4.815H60.676Zm39.246 0h5.221v48.771h-5.221zm27.108 4.881h-13.664v-4.88h32.617v4.88h-13.73v43.89h-5.223zm26.906 25.702V82.888h5.222v30.445c0 9.207 4.672 14.286 12.34 14.286 7.458 0 12.202-4.815 12.202-14.072v-30.66h5.233v30.309c0 12.537-7.053 19.232-17.578 19.232-10.383 0-17.419-6.695-17.419-18.952m45.182-30.583h4.952l25.51 38.383V82.893h5.15v48.771h-4.387l-26.13-39.317v39.317h-5.095zm45.005 24.657v-.494c0-14.143 8.921-24.86 21.74-24.86 6.348 0 10.596 1.813 14.774 5.215l-3.122 4.194c-3.001-2.66-6.486-4.529-11.796-4.529-9.256 0-16.165 8.344-16.165 19.98v.352c0 12.274 6.629 20.205 16.66 20.205 4.177 0 8.02-1.533 10.526-3.474v-13.736h-12.203v-4.666h17.227v20.909c-3.771 3.067-9.273 5.71-15.759 5.71-13.313 0-21.882-10.102-21.882-24.805" style="fill:#fff;fill-opacity:1;fill-rule:nonzero;stroke:none;stroke-width:1.40711"/></svg>